<svg width="33" height="32" viewBox="0 0 33 32" fill="none" xmlns="http://www.w3.org/2000/svg">
<path d="M29.5741 13.389H28.5001V13.3337H16.5001V18.667H24.0354C22.9361 21.7717 19.9821 24.0003 16.5001 24.0003C12.0821 24.0003 8.50008 20.4183 8.50008 16.0003C8.50008 11.5823 12.0821 8.00033 16.5001 8.00033C18.5394 8.00033 20.3947 8.76966 21.8074 10.0263L25.5787 6.25499C23.1974 4.03566 20.0121 2.66699 16.5001 2.66699C9.13675 2.66699 3.16675 8.63699 3.16675 16.0003C3.16675 23.3637 9.13675 29.3337 16.5001 29.3337C23.8634 29.3337 29.8334 23.3637 29.8334 16.0003C29.8334 15.1063 29.7414 14.2337 29.5741 13.389Z" fill="#FFC107"/>
<path d="M4.7041 9.79433L9.08477 13.007C10.2701 10.0723 13.1408 8.00033 16.5001 8.00033C18.5394 8.00033 20.3948 8.76966 21.8074 10.0263L25.5788 6.25499C23.1974 4.03566 20.0121 2.66699 16.5001 2.66699C11.3788 2.66699 6.93743 5.55833 4.7041 9.79433Z" fill="#FF3D00"/>
<path d="M16.4999 29.3338C19.9439 29.3338 23.0732 28.0158 25.4392 25.8725L21.3126 22.3805C19.9289 23.4327 18.2382 24.0018 16.4999 24.0005C13.0319 24.0005 10.0872 21.7891 8.97788 18.7031L4.62988 22.0531C6.83655 26.3711 11.3179 29.3338 16.4999 29.3338Z" fill="#4CAF50"/>
<path d="M29.574 13.3883H28.5V13.333H16.5V18.6663H24.0353C23.5095 20.1439 22.5622 21.4351 21.3107 22.3803L21.3127 22.379L25.4393 25.871C25.1473 26.1363 29.8333 22.6663 29.8333 15.9997C29.8333 15.1057 29.7413 14.233 29.574 13.3883Z" fill="#1976D2"/>
</svg>
