<svg width="24" height="25" viewBox="0 0 24 25" fill="none" xmlns="http://www.w3.org/2000/svg">
<path fill-rule="evenodd" clip-rule="evenodd" d="M1 12.333C3.028 8.18101 7.192 5.33301 12 5.33301C16.808 5.33301 20.972 8.18101 23 12.333C20.972 16.485 16.808 19.333 12 19.333C7.192 19.333 3.028 16.485 1 12.333ZM12 15.833C12.4596 15.833 12.9148 15.7425 13.3394 15.5666C13.764 15.3907 14.1499 15.1329 14.4749 14.8079C14.7999 14.4829 15.0577 14.097 15.2336 13.6724C15.4095 13.2478 15.5 12.7926 15.5 12.333C15.5 11.8734 15.4095 11.4183 15.2336 10.9936C15.0577 10.569 14.7999 10.1831 14.4749 9.85813C14.1499 9.53313 13.764 9.27532 13.3394 9.09943C12.9148 8.92354 12.4596 8.83301 12 8.83301C11.0717 8.83301 10.1815 9.20176 9.52513 9.85813C8.86875 10.5145 8.5 11.4047 8.5 12.333C8.5 13.2613 8.86875 14.1515 9.52513 14.8079C10.1815 15.4643 11.0717 15.833 12 15.833Z" fill="black"/>
</svg>
