<svg width="33" height="32" viewBox="0 0 33 32" fill="none" xmlns="http://www.w3.org/2000/svg">
<path d="M24.9762 16.9712C25.0197 21.6712 29.0997 23.2355 29.1447 23.2555C29.1102 23.3655 28.4929 25.4845 26.9954 27.6727C25.7009 29.5647 24.3572 31.4497 22.2409 31.4892C20.1614 31.5272 19.4927 30.2557 17.1149 30.2557C14.7379 30.2557 13.9952 31.4497 12.0264 31.5272C9.98342 31.6047 8.42767 29.481 7.12242 27.5962C4.45542 23.7402 2.41717 16.7 5.15392 11.9477C6.51342 9.5877 8.94342 8.09345 11.5807 8.05495C13.5867 8.0167 15.4802 9.40445 16.7064 9.40445C17.9319 9.40445 20.2329 7.73545 22.6519 7.98045C23.6647 8.0227 26.5072 8.38945 28.3324 11.0615C28.1857 11.1527 24.9409 13.0417 24.9762 16.9712ZM21.0679 5.4297C22.1524 4.11695 22.8824 2.28895 22.6834 0.470703C21.1199 0.533453 19.2294 1.51245 18.1082 2.8247C17.1032 3.98645 16.2232 5.84645 16.4604 7.6287C18.2032 7.7637 19.9832 6.7432 21.0679 5.4297Z" fill="black"/>
</svg>
