<svg width="56" height="56" viewBox="0 0 56 56" fill="none" xmlns="http://www.w3.org/2000/svg">
<path d="M15.2335 15.1832C14.2897 14.2394 14.2897 12.7092 15.2335 11.7654L26.2911 0.707851C27.2349 -0.235951 28.7651 -0.23595 29.7089 0.707852L40.8168 11.8157C41.7606 12.7595 41.7606 14.2897 40.8168 15.2335L29.7592 26.2911C28.8154 27.2349 27.2852 27.2349 26.3414 26.2911L15.2335 15.1832Z" fill="#192C26"/>
<path d="M12.6702 17.7466C11.7264 16.8028 10.1962 16.8028 9.25236 17.7466L0.707852 26.2911C-0.23595 27.2349 -0.235951 28.7651 0.707851 29.7089L11.8157 40.8168C12.7595 41.7606 14.2897 41.7606 15.2335 40.8168L23.778 32.2723C24.7218 31.3285 24.7218 29.7983 23.778 28.8545L12.6702 17.7466Z" fill="#609960"/>
<path d="M29.7592 34.8356C28.8154 33.8918 27.2852 33.8918 26.3414 34.8356L17.7969 43.3801C16.8531 44.3239 16.8531 45.8541 17.7969 46.7979L26.2911 55.2921C27.2349 56.2359 28.7651 56.2359 29.7089 55.2921L38.2534 46.7476C39.1972 45.8038 39.1972 44.2736 38.2534 43.3298L29.7592 34.8356Z" fill="#192C26"/>
<path d="M40.8168 40.7665C41.7606 41.7103 43.2908 41.7103 44.2346 40.7665L55.2921 29.7089C56.2359 28.7651 56.2359 27.2349 55.2921 26.2911L46.7979 17.7969C45.8541 16.8531 44.3239 16.8531 43.3801 17.7969L32.3226 28.8545C31.3788 29.7983 31.3788 31.3285 32.3226 32.2723L40.8168 40.7665Z" fill="#609960"/>
</svg>
