<svg width="24" height="24" viewBox="0 0 24 24" fill="none" xmlns="http://www.w3.org/2000/svg">
<path d="M6.52866 6.5071C6.12417 6.10261 6.12417 5.44681 6.52866 5.04232L11.2676 0.303365C11.6721 -0.101122 12.3279 -0.101122 12.7324 0.303365L17.4929 5.06388C17.8974 5.46837 17.8974 6.12417 17.4929 6.52866L12.7539 11.2676C12.3495 11.6721 11.6937 11.6721 11.2892 11.2676L6.52866 6.5071Z" fill="#2C2C2C"/>
<path d="M5.43007 7.60568C5.02559 7.20119 4.36978 7.20119 3.9653 7.60568L0.303365 11.2676C-0.101121 11.6721 -0.101122 12.3279 0.303365 12.7324L5.06388 17.4929C5.46837 17.8974 6.12417 17.8974 6.52866 17.4929L10.1906 13.831C10.5951 13.4265 10.5951 12.7707 10.1906 12.3662L5.43007 7.60568Z" fill="#999999"/>
<path d="M12.7539 14.9296C12.3495 14.5251 11.6937 14.5251 11.2892 14.9296L7.62724 18.5915C7.22275 18.996 7.22275 19.6518 7.62724 20.0563L11.2676 23.6966C11.6721 24.1011 12.3279 24.1011 12.7324 23.6966L16.3943 20.0347C16.7988 19.6302 16.7988 18.9744 16.3943 18.5699L12.7539 14.9296Z" fill="#2C2C2C"/>
<path d="M17.4929 17.4713C17.8974 17.8758 18.5532 17.8758 18.9577 17.4713L23.6966 12.7324C24.1011 12.3279 24.1011 11.6721 23.6966 11.2676L20.0563 7.62724C19.6518 7.22275 18.996 7.22275 18.5915 7.62724L13.8525 12.3662C13.448 12.7707 13.448 13.4265 13.8525 13.831L17.4929 17.4713Z" fill="#999999"/>
</svg>
